<svg version="1.1" id="Layer_1" xmlns="http://www.w3.org/2000/svg" xmlns:xlink="http://www.w3.org/1999/xlink" x="0px" y="0px"
	 width="100%" viewBox="0 0 512 512" enable-background="new 0 0 512 512" xml:space="preserve">
<path fill="#08E8DE" opacity="1.000000" stroke="none" 
	d="
M171.000000,513.000000 
	C114.406326,513.000000 57.812653,513.000000 1.000000,513.000000 
	C1.000000,456.645966 1.000000,400.291626 1.461611,343.377350 
	C16.715517,342.789642 31.507830,342.730865 46.300102,342.740082 
	C87.851677,342.765991 129.403229,342.819916 170.988953,343.343445 
	C171.015427,400.216034 171.007706,456.608032 171.000000,513.000000 
z"/>
<path fill="#00FFEF" opacity="1.000000" stroke="none" 
	d="
M343.000000,1.000000 
	C399.593658,1.000000 456.187347,1.000000 513.000000,1.000000 
	C513.000000,57.354038 513.000000,113.708359 512.531372,170.530853 
	C457.961731,170.998795 403.860748,171.001419 349.759796,170.988525 
	C347.433105,170.987976 345.106445,170.844269 342.744202,170.314331 
	C342.710358,115.731644 342.708771,61.601887 342.725861,7.472129 
	C342.726532,5.314723 342.904602,3.157375 343.000000,1.000000 
z"/>
<path fill="#40E0D0" opacity="1.000000" stroke="none" 
	d="
M1.000000,171.000000 
	C1.000000,114.406319 1.000000,57.812634 1.000000,1.000000 
	C57.354038,1.000000 113.708359,1.000000 170.610046,1.463484 
	C171.182526,40.938675 171.183624,79.950447 171.283920,118.961960 
	C171.291016,121.722557 172.028366,124.481293 172.186020,127.483185 
	C170.954498,129.145554 169.963135,130.565643 168.606232,131.981079 
	C166.827881,133.649078 165.415070,135.321732 163.846375,137.175034 
	C163.472794,137.588882 163.237335,137.802460 162.617966,137.989929 
	C160.832916,139.649506 159.413986,141.315582 157.796906,143.238983 
	C156.066742,144.999710 154.534760,146.503098 152.634781,147.998474 
	C150.851913,149.668976 149.437027,151.347504 147.816864,153.286652 
	C142.391006,159.004333 137.170441,164.461380 131.638641,169.923203 
	C130.888306,170.312897 130.449173,170.697815 129.631531,171.143600 
	C128.538513,171.483948 127.823990,171.763412 126.681305,171.829102 
	C124.269913,171.478439 122.286858,171.225800 120.303413,171.222656 
	C101.332878,171.192566 82.362228,171.231140 63.391701,171.197479 
	C42.594418,171.160583 21.797230,171.068207 1.000000,171.000000 
z"/>
<path fill="#30D5C8" opacity="1.000000" stroke="none" 
	d="
M513.000000,343.000000 
	C513.000000,399.593658 513.000000,456.187347 513.000000,513.000000 
	C456.645966,513.000000 400.291626,513.000000 343.454956,512.531494 
	C342.944794,471.387665 342.917023,430.712250 342.867004,389.751831 
	C342.338928,388.999634 341.833038,388.532471 341.254333,387.756775 
	C341.110443,387.249237 341.039337,387.050201 341.019592,386.617096 
	C341.201752,386.089386 341.294952,385.784271 341.682434,385.388245 
	C343.860901,383.350342 345.707520,381.391815 347.831268,379.312256 
	C349.056671,378.446777 350.004974,377.702332 351.322876,376.978638 
	C352.787567,375.658936 353.882629,374.318512 355.134827,372.739624 
	C355.853302,371.992706 356.414642,371.484283 357.336914,370.992493 
	C362.609283,366.631287 367.649902,362.387207 372.378845,357.820404 
	C374.819122,355.463745 376.705414,352.533508 379.015381,349.634766 
	C379.739899,348.881775 380.291107,348.356415 381.154358,347.781738 
	C381.932281,347.111542 382.398224,346.490692 383.059143,345.611084 
	C384.833252,343.902588 386.412323,342.452850 388.078186,340.970581 
	C388.164948,340.938110 388.338531,341.002991 388.380066,341.381714 
	C390.419769,342.172028 392.417267,342.938965 394.416168,342.942596 
	C433.944031,343.014740 473.472015,342.998383 513.000000,343.000000 
z"/>
<path fill="#AFEEEE" opacity="1.000000" stroke="none" 
	d="
M1.000000,171.468658 
	C21.797230,171.068207 42.594418,171.160583 63.391701,171.197479 
	C82.362228,171.231140 101.332878,171.192566 120.303413,171.222656 
	C122.286858,171.225800 124.269913,171.478439 126.575836,172.071213 
	C124.834175,174.750198 122.710648,176.922073 120.726295,179.214432 
	C119.406914,180.738602 118.286331,182.434875 117.006287,184.363876 
	C116.556862,185.428940 116.177925,186.184250 115.475060,187.074982 
	C113.069389,190.421829 111.288948,193.644089 114.831055,197.387451 
	C114.900429,198.160858 114.936172,198.603165 114.975433,199.405548 
	C115.633141,200.850891 116.287331,201.936127 117.128906,203.312988 
	C123.842575,211.699280 141.760056,208.702835 146.345001,197.950455 
	C152.806244,192.067261 158.863632,186.167603 165.094955,180.457779 
	C166.718246,178.970322 168.883865,178.074738 170.917358,177.369720 
	C171.084732,180.325943 171.176819,182.819748 171.179367,185.313644 
	C171.232559,237.228073 171.275604,289.142517 171.175903,341.346344 
	C171.004379,342.061707 170.977585,342.487701 170.957947,342.904724 
	C170.965088,342.895782 170.954788,342.862793 170.954788,342.862793 
	C129.403229,342.819916 87.851677,342.765991 46.300102,342.740082 
	C31.507830,342.730865 16.715517,342.789642 1.461611,342.908691 
	C1.000000,285.979095 1.000000,228.958206 1.000000,171.468658 
z"/>
<path fill="#00CED1" opacity="1.000000" stroke="none" 
	d="
M513.000000,173.000000 
	C513.000000,228.687561 513.000000,284.375122 512.531372,340.532593 
	C470.821289,341.002625 429.579926,341.002808 388.338531,341.002991 
	C388.338531,341.002991 388.164948,340.938110 388.233887,340.661011 
	C389.514984,338.586304 390.727142,336.788635 392.091980,334.698059 
	C392.486176,333.599915 392.727631,332.794708 393.208405,331.763672 
	C393.546173,330.670319 393.644623,329.802826 394.030426,328.764954 
	C394.122711,327.420593 393.927704,326.246674 393.737457,324.699829 
	C392.072632,316.212708 385.918091,312.199677 375.113586,312.308105 
	C370.756470,311.586731 368.185181,313.178772 366.879883,317.258911 
	C366.160217,318.015350 365.591431,318.525879 364.686279,319.077759 
	C363.240234,320.412567 362.130585,321.706055 360.848999,323.266357 
	C359.452301,324.696167 358.227478,325.859131 356.695770,327.070740 
	C355.930756,327.742554 355.472626,328.365692 354.834351,329.267975 
	C351.751282,332.360107 348.848328,335.173096 345.546021,337.985931 
	C344.340027,338.013947 343.533417,338.042145 342.775513,337.599854 
	C342.860199,334.469543 342.925995,331.809692 342.927612,329.149811 
	C342.959290,277.098907 342.983490,225.048019 343.477295,172.995911 
	C400.296906,172.996475 456.648468,172.998245 513.000000,173.000000 
z"/>
<path fill="#B2FFFF" opacity="1.000000" stroke="none" 
	d="
M172.426163,127.240891 
	C172.028366,124.481293 171.291016,121.722557 171.283920,118.961960 
	C171.183624,79.950447 171.182526,40.938675 171.078705,1.463484 
	C228.020889,1.000000 285.041779,1.000000 342.531342,1.000000 
	C342.904602,3.157375 342.726532,5.314723 342.725861,7.472129 
	C342.708771,61.601887 342.710358,115.731644 342.670715,170.257645 
	C342.632782,170.653885 342.462067,170.731033 342.046204,170.784622 
	C333.851501,170.938324 326.072906,171.064392 318.293762,171.133057 
	C302.730591,171.270447 287.167114,171.376389 271.461975,171.014008 
	C271.227203,167.882675 271.058929,165.232834 271.052643,162.582581 
	C270.974213,129.392654 270.919220,96.202675 270.899933,62.684063 
	C270.946625,61.914318 270.951599,61.473221 270.955078,60.687782 
	C270.300629,59.563614 269.647705,58.783787 268.997375,58.001976 
	C269.000000,58.000000 268.996277,58.005096 268.864990,57.634048 
	C264.150208,56.851002 259.566742,56.439003 254.652893,56.017479 
	C253.881470,56.011448 253.440430,56.014938 252.737656,55.785839 
	C250.968506,56.003666 249.461075,56.454082 247.561172,56.913025 
	C246.122696,56.964420 245.076706,57.007286 243.687531,57.087646 
	C239.231766,61.417706 235.119171,65.710281 230.756989,70.222824 
	C221.990433,78.952248 213.473495,87.461708 204.621704,96.034256 
	C202.874619,97.216530 201.342636,98.214752 200.069748,99.474739 
	C192.406540,107.060410 184.780899,114.684479 177.198120,122.350548 
	C175.741104,123.823555 174.530640,125.540428 173.015045,127.198654 
	C172.823654,127.252510 172.426163,127.240891 172.426163,127.240891 
z"/>
<path fill="#33B3A6" opacity="1.000000" stroke="none" 
	d="
M342.889252,390.036865 
	C342.917023,430.712250 342.944794,471.387665 342.986267,512.531494 
	C285.979095,513.000000 228.958206,513.000000 171.468658,513.000000 
	C171.007706,456.608032 171.015427,400.216034 170.988953,343.343445 
	C170.954788,342.862793 170.965088,342.895782 171.428894,342.943604 
	C192.339233,342.993439 212.785843,343.019775 233.232178,342.957916 
	C235.160019,342.952087 237.086182,342.391541 239.234497,342.003906 
	C239.864990,341.689240 240.274078,341.459198 240.834839,341.580322 
	C241.155014,343.246338 241.471497,344.561371 241.470001,345.875977 
	C241.442764,369.833130 241.335281,393.790222 241.342987,417.747345 
	C241.345673,426.055817 241.613861,434.364227 241.541031,442.960999 
	C241.820053,444.209198 242.318848,445.169037 242.890427,446.510925 
	C243.645035,449.707489 244.560822,452.490082 244.950577,455.344482 
	C245.459518,459.071838 247.365738,460.961670 251.070541,460.981232 
	C255.367096,461.003906 259.664154,460.928833 264.300964,460.964752 
	C265.095184,460.968903 265.549469,460.904480 266.219818,461.037415 
	C268.082703,459.339844 269.729523,457.444946 271.396576,455.479919 
	C271.416809,455.409790 271.557373,455.370483 271.908142,455.497253 
	C278.565887,449.477264 284.872894,443.330536 291.448120,437.062927 
	C292.206879,436.355682 292.697418,435.769348 293.504181,435.071472 
	C294.854706,433.606964 295.889008,432.254059 297.117920,430.640747 
	C299.185852,428.569763 301.059204,426.759155 303.276245,424.920654 
	C304.739319,423.585297 305.858673,422.277863 307.169739,420.700836 
	C316.278290,411.646698 325.195221,402.862122 334.457672,394.061768 
	C336.807190,392.674316 338.811188,391.302612 341.162109,389.954712 
	C341.969116,389.997986 342.429199,390.017426 342.889252,390.036865 
z"/>
<path fill="#00DEDC" opacity="1.000000" stroke="none" 
	d="
M513.000000,172.666672 
	C456.648468,172.998245 400.296906,172.996475 343.426086,172.609589 
	C342.758545,171.726639 342.610291,171.228836 342.462067,170.731033 
	C342.462067,170.731033 342.632782,170.653885 342.706299,170.710571 
	C345.106445,170.844269 347.433105,170.987976 349.759796,170.988525 
	C403.860748,171.001419 457.961731,170.998795 512.531372,170.999512 
	C513.000000,171.444443 513.000000,171.888901 513.000000,172.666672 
z"/>
<path fill="#13D1CE" opacity="1.000000" stroke="none" 
	d="
M388.380066,341.381714 
	C429.579926,341.002808 470.821289,341.002625 512.531372,341.001221 
	C513.000000,341.444458 513.000000,341.888885 513.000000,342.666687 
	C473.472015,342.998383 433.944031,343.014740 394.416168,342.942596 
	C392.417267,342.938965 390.419769,342.172028 388.380066,341.381714 
z"/>
<path fill="#FEFFFF" opacity="1.000000" stroke="none" 
	d="
M263.960999,460.896179 
	C259.664154,460.928833 255.367096,461.003906 251.070541,460.981232 
	C247.365738,460.961670 245.459518,459.071838 244.950577,455.344482 
	C244.560822,452.490082 243.645035,449.707489 242.944458,446.181152 
	C242.537384,444.537140 242.149078,443.604889 241.760803,442.672668 
	C241.613861,434.364227 241.345673,426.055817 241.342987,417.747345 
	C241.335281,393.790222 241.442764,369.833130 241.470001,345.875977 
	C241.471497,344.561371 241.155014,343.246338 241.007996,341.114960 
	C241.085861,338.301666 241.192551,336.304901 241.191330,334.308197 
	C241.159927,282.985535 241.123947,231.662857 241.059509,180.340225 
	C241.055756,177.352676 240.805527,174.365417 240.775543,170.885773 
	C240.881073,148.720779 240.881073,127.048065 240.881073,105.375343 
	C240.404327,105.225853 239.927582,105.076363 239.450836,104.926880 
	C237.367020,106.732887 235.164841,108.420631 233.220779,110.366264 
	C226.410736,117.181824 219.689682,124.086288 212.599716,131.021622 
	C210.855835,132.213409 209.326157,133.219299 208.056488,134.485855 
	C188.572189,153.922318 169.105682,173.376740 149.695740,192.887360 
	C148.231064,194.359604 147.225159,196.288284 146.006012,198.004791 
	C141.760056,208.702835 123.842575,211.699280 117.145996,202.947052 
	C116.307770,201.208176 115.639839,200.126831 114.971909,199.045471 
	C114.936172,198.603165 114.900429,198.160858 114.887802,196.948792 
	C115.206932,193.099213 115.502960,190.019379 115.798981,186.939560 
	C116.177925,186.184250 116.556862,185.428940 117.338600,184.291412 
	C121.850395,180.034409 125.959389,176.159653 130.365295,172.143021 
	C131.091431,171.306900 131.520645,170.612671 131.949860,169.918427 
	C137.170441,164.461380 142.391006,159.004333 148.135025,153.197510 
	C150.106567,151.234009 151.554672,149.620255 153.002777,148.006500 
	C154.534760,146.503098 156.066742,144.999710 158.115921,143.155319 
	C160.083435,141.208359 161.533768,139.602386 162.984085,137.996414 
	C163.237335,137.802460 163.472794,137.588882 164.166107,137.092438 
	C166.085068,135.214691 167.528427,133.600220 168.971771,131.985733 
	C169.963135,130.565643 170.954498,129.145554 172.186020,127.483185 
	C172.426163,127.240891 172.823654,127.252510 173.355286,127.156631 
	C175.023941,126.426773 176.372604,126.007072 177.265167,125.125565 
	C185.913055,116.584877 194.506561,107.988571 203.044189,99.337669 
	C203.919739,98.450485 204.330246,97.104340 204.956558,95.971176 
	C213.473495,87.461708 221.990433,78.952248 231.095917,70.168716 
	C235.799866,65.613144 239.915298,61.331654 244.030716,57.050156 
	C245.076706,57.007286 246.122696,56.964420 247.981628,56.956367 
	C250.197845,57.007710 251.601120,57.024231 253.206329,57.243011 
	C253.942734,57.622150 254.477249,57.799026 255.475616,57.983391 
	C260.291748,57.995621 264.644012,58.000359 268.996277,58.005096 
	C268.996277,58.005096 269.000000,58.000000 268.992615,58.335018 
	C268.990967,59.114178 268.996704,59.558315 269.014282,60.336906 
	C269.636810,61.451805 270.247528,62.232254 270.858215,63.012703 
	C270.919220,96.202675 270.974213,129.392654 271.052643,162.582581 
	C271.058929,165.232834 271.227203,167.882675 271.350525,171.429993 
	C271.317169,172.989685 271.197205,173.652176 271.197845,174.314529 
	C271.248169,226.961014 271.299561,279.607513 271.406982,332.253876 
	C271.410248,333.853363 272.004913,335.451660 272.059509,337.431824 
	C271.954498,339.593964 272.113861,341.374756 272.039185,343.551025 
	C271.717957,362.065979 271.601868,380.185394 271.571075,398.305023 
	C271.565735,401.440521 271.921692,404.576630 271.883850,408.027222 
	C272.483429,409.053131 273.309875,409.764313 274.355286,410.580200 
	C275.043182,410.114838 275.512146,409.544739 276.173889,408.703674 
	C285.270996,399.641174 294.175262,390.849548 303.435364,382.044434 
	C305.160767,381.169861 306.743866,380.524689 307.866943,379.414276 
	C319.061920,368.344666 330.199829,357.217072 341.292755,346.045135 
	C342.418213,344.911621 343.143707,343.380951 344.390076,341.973663 
	C348.903412,337.704590 353.081482,333.496490 357.561523,329.151062 
	C359.581451,327.021759 361.299469,325.029755 363.173462,322.793610 
	C363.904358,322.041504 364.479309,321.533569 365.397003,320.981384 
	C367.443176,319.221893 369.146545,317.506592 371.057709,315.532471 
	C372.685974,314.332306 374.106476,313.391022 375.527008,312.449738 
	C385.918091,312.199677 392.072632,316.212708 393.492188,324.837769 
	C393.409088,326.544220 393.576080,327.739807 393.743103,328.935364 
	C393.644623,329.802826 393.546173,330.670319 392.880219,331.820984 
	C391.562408,333.080902 390.812073,334.057617 389.781189,335.214172 
	C386.605652,338.865387 383.710663,342.336761 380.508240,345.926208 
	C379.126678,347.353363 378.052582,348.662476 376.790955,350.248108 
	C370.060974,357.341766 363.518494,364.158844 356.976013,370.975891 
	C356.414642,371.484283 355.853302,371.992706 354.813110,372.805237 
	C353.207245,374.392181 352.080261,375.675018 350.953247,376.957886 
	C350.004974,377.702332 349.056671,378.446777 347.453796,379.233582 
	C344.983002,381.339874 343.166779,383.403748 341.350555,385.467651 
	C341.294952,385.784271 341.201752,386.089386 340.746307,386.600586 
	C340.241791,386.847870 340.061920,386.877594 339.531006,386.929993 
	C337.930664,387.708252 336.474609,388.254364 335.464172,389.251862 
	C326.022614,398.572113 316.634460,407.946930 307.304352,417.378693 
	C306.317505,418.376312 305.802032,419.840179 304.897461,421.312256 
	C304.172852,422.040771 303.618652,422.544800 302.720398,423.080963 
	C299.923187,425.749969 297.470032,428.386810 294.854309,431.256073 
	C294.138672,432.000122 293.585632,432.511719 292.717438,433.072266 
	C291.954193,433.769165 291.506073,434.417114 291.029602,435.033142 
	C291.001221,435.001221 291.065002,435.058014 290.748657,435.093597 
	C289.958618,435.758026 289.484894,436.386871 288.814026,437.281250 
	C282.930359,443.487976 277.243866,449.429230 271.557373,455.370483 
	C271.557373,455.370483 271.416809,455.409790 271.125580,455.550171 
	C270.198669,456.107117 269.563019,456.523682 268.577972,456.953186 
	C266.806030,458.276123 265.383514,459.586151 263.960999,460.896179 
z"/>
<path fill="#DCF5F4" opacity="1.000000" stroke="none" 
	d="
M130.068390,172.284882 
	C125.959389,176.159653 121.850395,180.034409 117.409088,183.981659 
	C118.286331,182.434875 119.406914,180.738602 120.726295,179.214432 
	C122.710648,176.922073 124.834175,174.750198 127.003998,172.285004 
	C127.823990,171.763412 128.538513,171.483948 129.634186,171.444519 
	C130.033035,171.884674 130.050705,172.084778 130.068390,172.284882 
z"/>
<path fill="#76E5E3" opacity="1.000000" stroke="none" 
	d="
M152.634781,147.998474 
	C151.554672,149.620255 150.106567,151.234009 148.340302,152.936890 
	C149.437027,151.347504 150.851913,149.668976 152.634781,147.998474 
z"/>
<path fill="#76E5E3" opacity="1.000000" stroke="none" 
	d="
M162.617966,137.989929 
	C161.533768,139.602386 160.083435,141.208359 158.314087,142.898010 
	C159.413986,141.315582 160.832916,139.649506 162.617966,137.989929 
z"/>
<path fill="#76E5E3" opacity="1.000000" stroke="none" 
	d="
M168.606232,131.981079 
	C167.528427,133.600220 166.085068,135.214691 164.321991,136.911774 
	C165.415070,135.321732 166.827881,133.649078 168.606232,131.981079 
z"/>
<path fill="#C7F4F1" opacity="1.000000" stroke="none" 
	d="
M130.365295,172.143005 
	C130.050705,172.084778 130.033035,171.884674 130.012695,171.383636 
	C130.449173,170.697815 130.888306,170.312897 131.638641,169.923203 
	C131.520645,170.612671 131.091431,171.306900 130.365295,172.143005 
z"/>
<path fill="#77DDD9" opacity="1.000000" stroke="none" 
	d="
M357.336914,370.992493 
	C363.518494,364.158844 370.060974,357.341766 377.102661,350.248413 
	C378.015259,349.935577 378.428650,349.899017 378.842041,349.862427 
	C376.705414,352.533508 374.819122,355.463745 372.378845,357.820404 
	C367.649902,362.387207 362.609283,366.631287 357.336914,370.992493 
z"/>
<path fill="#C7F4F1" opacity="1.000000" stroke="none" 
	d="
M380.815674,345.808105 
	C383.710663,342.336761 386.605652,338.865387 390.093384,335.206085 
	C391.103882,335.009094 391.521606,335.000031 391.939301,334.990997 
	C390.727142,336.788635 389.514984,338.586304 388.147095,340.693512 
	C386.412323,342.452850 384.833252,343.902588 382.776093,345.643494 
	C381.928436,346.019745 381.558838,346.104858 381.095581,346.094757 
	C381.001923,345.999542 380.815674,345.808105 380.815674,345.808105 
z"/>
<path fill="#6BC8BF" opacity="1.000000" stroke="none" 
	d="
M339.882050,386.907288 
	C340.061920,386.877594 340.241791,386.847870 340.694946,386.834656 
	C341.039337,387.050201 341.110443,387.249237 341.136719,388.058533 
	C340.999664,389.089539 340.907410,389.510254 340.815186,389.930908 
	C338.811188,391.302612 336.807190,392.674316 334.558136,393.745392 
	C336.169403,391.265594 338.025726,389.086456 339.882050,386.907288 
z"/>
<path fill="#C7F4F1" opacity="1.000000" stroke="none" 
	d="
M341.682434,385.388245 
	C343.166779,383.403748 344.983002,381.339874 347.176697,379.354675 
	C345.707520,381.391815 343.860901,383.350342 341.682434,385.388245 
z"/>
<path fill="#C7F4F1" opacity="1.000000" stroke="none" 
	d="
M379.015381,349.634766 
	C378.428650,349.899017 378.015259,349.935577 377.290161,349.971863 
	C378.052582,348.662476 379.126678,347.353363 380.508209,345.926208 
	C380.815674,345.808105 381.001923,345.999542 381.021362,346.363953 
	C380.974609,347.095886 380.908447,347.463470 380.842285,347.831055 
	C380.291107,348.356415 379.739899,348.881775 379.015381,349.634766 
z"/>
<path fill="#77DDD9" opacity="1.000000" stroke="none" 
	d="
M351.322876,376.978638 
	C352.080261,375.675018 353.207245,374.392181 354.655975,373.043701 
	C353.882629,374.318512 352.787567,375.658936 351.322876,376.978638 
z"/>
<path fill="#28BDB0" opacity="1.000000" stroke="none" 
	d="
M341.162109,389.954742 
	C340.907410,389.510254 340.999664,389.089539 341.209534,388.367096 
	C341.833038,388.532471 342.338928,388.999634 342.867004,389.751831 
	C342.429199,390.017426 341.969116,389.997986 341.162109,389.954742 
z"/>
<path fill="#77DDD9" opacity="1.000000" stroke="none" 
	d="
M381.154327,347.781708 
	C380.908447,347.463470 380.974609,347.095886 381.115021,346.459167 
	C381.558838,346.104858 381.928436,346.019745 382.581116,345.902252 
	C382.398224,346.490692 381.932281,347.111542 381.154327,347.781708 
z"/>
<path fill="#48D1CC" opacity="1.000000" stroke="none" 
	d="
M240.669998,171.378021 
	C240.805527,174.365417 241.055756,177.352676 241.059509,180.340225 
	C241.123947,231.662857 241.159927,282.985535 241.191330,334.308197 
	C241.192551,336.304901 241.085861,338.301666 240.856308,340.763794 
	C240.274078,341.459198 239.864990,341.689240 238.913071,341.733398 
	C236.908005,341.366333 235.445892,341.028687 233.983505,341.027496 
	C213.095917,341.010651 192.208282,341.039276 171.320663,341.056946 
	C171.275604,289.142517 171.232559,237.228073 171.179367,185.313644 
	C171.176819,182.819748 171.084732,180.325943 170.995239,177.001709 
	C171.140076,172.403427 173.412537,170.922073 177.352463,170.878723 
	C180.145859,171.046097 182.472366,171.118271 184.799149,171.129440 
	C203.422745,171.218826 222.046371,171.296661 240.669998,171.378021 
z"/>
<path fill="#DFFCFC" opacity="1.000000" stroke="none" 
	d="
M176.885696,170.755264 
	C173.412537,170.922073 171.140076,172.403427 170.878265,176.539337 
	C168.883865,178.074738 166.718246,178.970322 165.094955,180.457779 
	C158.863632,186.167603 152.806244,192.067261 146.345001,197.950455 
	C147.225159,196.288284 148.231064,194.359604 149.695740,192.887360 
	C169.105682,173.376740 188.572189,153.922318 208.056488,134.485855 
	C209.326157,133.219299 210.855835,132.213409 212.560974,131.365234 
	C211.641006,133.178497 210.557053,134.844040 209.187042,136.225983 
	C199.515121,145.982040 189.739929,155.636185 180.121307,165.444092 
	C178.707504,166.885696 177.947952,168.968918 176.885696,170.755264 
z"/>
<path fill="#41C5BE" opacity="1.000000" stroke="none" 
	d="
M171.175903,341.346344 
	C192.208282,341.039276 213.095917,341.010651 233.983505,341.027496 
	C235.445892,341.028687 236.908005,341.366333 238.691681,341.818024 
	C237.086182,342.391541 235.160019,342.952087 233.232178,342.957916 
	C212.785843,343.019775 192.339233,342.993439 171.421753,342.952515 
	C170.977585,342.487701 171.004379,342.061707 171.175903,341.346344 
z"/>
<path fill="#C7F4F1" opacity="1.000000" stroke="none" 
	d="
M115.475052,187.074982 
	C115.502960,190.019379 115.206932,193.099213 114.854172,196.617676 
	C111.288948,193.644089 113.069389,190.421829 115.475052,187.074982 
z"/>
<path fill="#C7F4F1" opacity="1.000000" stroke="none" 
	d="
M114.975433,199.405548 
	C115.639839,200.126831 116.307770,201.208176 116.958611,202.655457 
	C116.287331,201.936127 115.633141,200.850891 114.975433,199.405548 
z"/>
<path fill="#48D1CC" opacity="1.000000" stroke="none" 
	d="
M272.323853,337.050507 
	C272.004913,335.451660 271.410248,333.853363 271.406982,332.253876 
	C271.299561,279.607513 271.248169,226.961014 271.197845,174.314529 
	C271.197205,173.652176 271.317169,172.989685 271.492310,171.911285 
	C287.167114,171.376389 302.730591,171.270447 318.293762,171.133057 
	C326.072906,171.064392 333.851501,170.938324 342.046204,170.784622 
	C342.610291,171.228836 342.758545,171.726639 342.958008,172.610779 
	C342.983490,225.048019 342.959290,277.098907 342.927612,329.149811 
	C342.925995,331.809692 342.860199,334.469543 342.524597,337.672668 
	C342.878510,338.833649 343.532135,339.451385 344.033569,340.318665 
	C343.524353,341.028931 343.167358,341.489594 342.576263,342.065521 
	C341.900818,342.453003 341.459473,342.725220 340.761841,343.003540 
	C340.334991,343.020264 340.164429,343.030884 339.982483,343.032593 
	C339.971069,343.023651 339.946136,343.008759 339.826416,342.634094 
	C337.861206,341.840912 336.017578,341.068665 334.169891,341.058899 
	C316.705414,340.966370 299.239105,340.900421 281.776001,341.082397 
	C277.827576,341.123566 274.375000,340.996429 272.323853,337.050507 
z"/>
<path fill="#C7F4F1" opacity="1.000000" stroke="none" 
	d="
M342.810333,341.950256 
	C343.167358,341.489594 343.524353,341.028931 344.284027,340.188721 
	C345.106262,339.201508 345.525848,338.593811 345.945404,337.986115 
	C348.848328,335.173096 351.751282,332.360107 355.138489,329.263428 
	C356.025208,328.929657 356.427643,328.879547 356.938232,328.943420 
	C357.046387,329.057404 357.259521,329.288361 357.259521,329.288391 
	C353.081482,333.496490 348.903412,337.704590 344.078674,341.953125 
	C343.224762,341.979156 343.017548,341.964722 342.810333,341.950256 
z"/>
<path fill="#40E0D0" opacity="1.000000" stroke="none" 
	d="
M375.113586,312.308105 
	C374.106476,313.391022 372.685974,314.332306 370.722290,315.595947 
	C369.129669,316.283203 368.080200,316.648071 367.030762,317.012970 
	C368.185181,313.178772 370.756470,311.586731 375.113586,312.308105 
z"/>
<path fill="#C7F4F1" opacity="1.000000" stroke="none" 
	d="
M363.017456,323.037750 
	C361.299469,325.029755 359.581451,327.021759 357.561493,329.151062 
	C357.259521,329.288361 357.046387,329.057404 356.981598,328.643707 
	C356.945404,327.827362 356.974030,327.424744 357.002655,327.022095 
	C358.227478,325.859131 359.452301,324.696167 361.182190,323.266998 
	C362.130676,323.013123 362.574066,323.025452 363.017456,323.037750 
z"/>
<path fill="#C7F4F1" opacity="1.000000" stroke="none" 
	d="
M366.879883,317.258911 
	C368.080200,316.648071 369.129669,316.283203 370.514526,315.854797 
	C369.146545,317.506592 367.443176,319.221893 365.366455,320.650574 
	C365.002930,319.921417 365.012787,319.478912 365.022644,319.036407 
	C365.591431,318.525879 366.160217,318.015350 366.879883,317.258911 
z"/>
<path fill="#40E0D0" opacity="1.000000" stroke="none" 
	d="
M364.686279,319.077759 
	C365.012787,319.478912 365.002930,319.921417 365.023682,320.694763 
	C364.479309,321.533569 363.904358,322.041504 363.173462,322.793610 
	C362.574066,323.025452 362.130676,323.013123 361.354095,323.000183 
	C362.130585,321.706055 363.240234,320.412567 364.686279,319.077759 
z"/>
<path fill="#DCF5F4" opacity="1.000000" stroke="none" 
	d="
M394.030426,328.764954 
	C393.576080,327.739807 393.409088,326.544220 393.487366,325.210693 
	C393.927704,326.246674 394.122711,327.420593 394.030426,328.764954 
z"/>
<path fill="#40E0D0" opacity="1.000000" stroke="none" 
	d="
M345.546021,337.985931 
	C345.525848,338.593811 345.106262,339.201508 344.436218,339.939148 
	C343.532135,339.451385 342.878510,338.833649 342.475830,338.143127 
	C343.533417,338.042145 344.340027,338.013947 345.546021,337.985931 
z"/>
<path fill="#DCF5F4" opacity="1.000000" stroke="none" 
	d="
M392.091980,334.698059 
	C391.521606,335.000031 391.103882,335.009094 390.373962,335.026245 
	C390.812073,334.057617 391.562408,333.080902 392.640930,332.046875 
	C392.727631,332.794708 392.486176,333.599915 392.091980,334.698059 
z"/>
<path fill="#40E0D0" opacity="1.000000" stroke="none" 
	d="
M356.695770,327.070740 
	C356.974030,327.424744 356.945404,327.827362 356.873444,328.529724 
	C356.427643,328.879547 356.025208,328.929657 355.318634,328.984314 
	C355.472626,328.365692 355.930756,327.742554 356.695770,327.070740 
z"/>
<path fill="#CFFFFF" opacity="1.000000" stroke="none" 
	d="
M204.621704,96.034256 
	C204.330246,97.104340 203.919739,98.450485 203.044189,99.337669 
	C194.506561,107.988571 185.913055,116.584877 177.265167,125.125565 
	C176.372604,126.007072 175.023941,126.426773 173.546677,127.102783 
	C174.530640,125.540428 175.741104,123.823555 177.198120,122.350548 
	C184.780899,114.684479 192.406540,107.060410 200.069748,99.474739 
	C201.342636,98.214752 202.874619,97.216530 204.621704,96.034256 
z"/>
<path fill="#DFFCFC" opacity="1.000000" stroke="none" 
	d="
M243.687531,57.087646 
	C239.915298,61.331654 235.799866,65.613144 231.345520,69.948746 
	C235.119171,65.710281 239.231766,61.417706 243.687531,57.087646 
z"/>
<path fill="#CFFFFF" opacity="1.000000" stroke="none" 
	d="
M268.864990,57.634048 
	C264.644012,58.000359 260.291748,57.995621 255.468781,57.658707 
	C254.993134,56.893356 254.988190,56.460178 254.983261,56.027000 
	C259.566742,56.439003 264.150208,56.851002 268.864990,57.634048 
z"/>
<path fill="#CFFFFF" opacity="1.000000" stroke="none" 
	d="
M253.004410,57.040752 
	C251.601120,57.024231 250.197845,57.007710 248.374115,56.947842 
	C249.461075,56.454082 250.968506,56.003666 252.740738,56.041298 
	C253.005157,56.699814 253.004776,56.870285 253.004410,57.040752 
z"/>
<path fill="#CFFFFF" opacity="1.000000" stroke="none" 
	d="
M269.002441,60.002457 
	C268.996704,59.558315 268.990967,59.114178 268.989990,58.336998 
	C269.647705,58.783787 270.300629,59.563614 270.709473,60.562279 
	C269.977722,60.521561 269.490082,60.262009 269.002441,60.002457 
z"/>
<path fill="#F2FBFA" opacity="1.000000" stroke="none" 
	d="
M269.014282,60.336906 
	C269.490082,60.262009 269.977722,60.521561 270.710968,60.906616 
	C270.951599,61.473221 270.946625,61.914318 270.899933,62.684059 
	C270.247528,62.232254 269.636810,61.451805 269.014282,60.336906 
z"/>
<path fill="#DFFCFC" opacity="1.000000" stroke="none" 
	d="
M253.206329,57.243011 
	C253.004776,56.870285 253.005157,56.699814 253.002472,56.273888 
	C253.440430,56.014938 253.881470,56.011448 254.652893,56.017479 
	C254.988190,56.460178 254.993134,56.893356 255.004913,57.651218 
	C254.477249,57.799026 253.942734,57.622150 253.206329,57.243011 
z"/>
<path fill="#C7EAE6" opacity="1.000000" stroke="none" 
	d="
M339.531006,386.929993 
	C338.025726,389.086456 336.169403,391.265594 334.212616,393.761169 
	C325.195221,402.862122 316.278290,411.646698 306.850342,420.707703 
	C305.915497,421.018677 305.491669,421.053223 305.067871,421.087769 
	C305.802032,419.840179 306.317505,418.376312 307.304352,417.378693 
	C316.634460,407.946930 326.022614,398.572113 335.464172,389.251862 
	C336.474609,388.254364 337.930664,387.708252 339.531006,386.929993 
z"/>
<path fill="#6BC8BF" opacity="1.000000" stroke="none" 
	d="
M271.908142,455.497253 
	C277.243866,449.429230 282.930359,443.487976 289.106689,437.277954 
	C289.974487,436.916260 290.352478,436.823395 290.842957,436.843750 
	C290.955444,436.956940 291.179901,437.183838 291.179871,437.183838 
	C284.872894,443.330536 278.565887,449.477264 271.908142,455.497253 
z"/>
<path fill="#C7EAE6" opacity="1.000000" stroke="none" 
	d="
M295.016876,431.023651 
	C297.470032,428.386810 299.923187,425.749969 302.710632,423.398499 
	C303.007446,424.105469 302.969971,424.526978 302.932495,424.948547 
	C301.059204,426.759155 299.185852,428.569763 296.799530,430.653595 
	C295.863312,430.959076 295.440094,430.991364 295.016876,431.023651 
z"/>
<path fill="#6BC8BF" opacity="1.000000" stroke="none" 
	d="
M268.927368,456.940247 
	C269.563019,456.523682 270.198669,456.107117 271.105347,455.620270 
	C269.729523,457.444946 268.082703,459.339844 266.350464,460.759583 
	C267.152496,459.169678 268.039917,458.054962 268.927368,456.940247 
z"/>
<path fill="#C7EAE6" opacity="1.000000" stroke="none" 
	d="
M268.577972,456.953186 
	C268.039917,458.054962 267.152496,459.169678 266.134399,460.562225 
	C265.549469,460.904480 265.095184,460.968903 264.300964,460.964783 
	C265.383514,459.586151 266.806030,458.276123 268.577972,456.953186 
z"/>
<path fill="#6BC8BF" opacity="1.000000" stroke="none" 
	d="
M294.854309,431.256073 
	C295.440094,430.991364 295.863312,430.959076 296.604919,430.914001 
	C295.889008,432.254059 294.854706,433.606964 293.391724,434.960754 
	C292.963074,434.961639 292.738831,434.739655 292.816101,434.458557 
	C292.939758,433.792755 292.986176,433.408051 293.032593,433.023315 
	C293.585632,432.511719 294.138672,432.000122 294.854309,431.256073 
z"/>
<path fill="#6BC8BF" opacity="1.000000" stroke="none" 
	d="
M303.276245,424.920624 
	C302.969971,424.526978 303.007446,424.105469 303.054688,423.366394 
	C303.618652,422.544800 304.172852,422.040771 304.897461,421.312256 
	C305.491669,421.053223 305.915497,421.018677 306.658691,420.977264 
	C305.858673,422.277863 304.739319,423.585297 303.276245,424.920624 
z"/>
<path fill="#9FDBD5" opacity="1.000000" stroke="none" 
	d="
M241.541016,442.960999 
	C242.149078,443.604889 242.537384,444.537140 242.871674,445.799133 
	C242.318848,445.169037 241.820053,444.209198 241.541016,442.960999 
z"/>
<path fill="#6BC8BF" opacity="1.000000" stroke="none" 
	d="
M293.075500,435.072327 
	C292.697418,435.769348 292.206879,436.355682 291.448120,437.062927 
	C291.179901,437.183838 290.955444,436.956940 290.925568,436.570953 
	C290.952118,435.809326 291.008575,435.433655 291.065002,435.058014 
	C291.065002,435.058014 291.001221,435.001221 291.316101,435.017700 
	C292.000244,434.936035 292.369537,434.837830 292.738831,434.739624 
	C292.738831,434.739655 292.963074,434.961639 293.075500,435.072327 
z"/>
<path fill="#34B3A6" opacity="1.000000" stroke="none" 
	d="
M272.110748,407.712463 
	C271.921692,404.576630 271.565735,401.440521 271.571075,398.305023 
	C271.601868,380.185394 271.717957,362.065979 272.406403,343.524261 
	C295.320465,343.070953 317.633301,343.039856 339.946136,343.008759 
	C339.946136,343.008759 339.971069,343.023651 339.978333,343.260925 
	C339.985596,343.498230 339.995789,343.956146 339.845398,344.254608 
	C332.093048,352.006439 324.491028,359.459808 316.534729,366.939117 
	C315.088531,368.269653 313.996643,369.574219 312.723511,371.147644 
	C310.982483,372.909027 309.422699,374.401550 307.513428,375.920166 
	C305.805756,376.819855 304.245117,377.488678 303.121307,378.599487 
	C294.081390,387.535156 285.153839,396.584564 276.100342,405.506256 
	C275.057983,406.533417 273.454193,406.990845 272.110748,407.712463 
z"/>
<path fill="#B3FFFF" opacity="1.000000" stroke="none" 
	d="
M177.352463,170.878723 
	C177.947952,168.968918 178.707504,166.885696 180.121307,165.444092 
	C189.739929,155.636185 199.515121,145.982040 209.187042,136.225983 
	C210.557053,134.844040 211.641006,133.178497 212.896088,131.300598 
	C219.689682,124.086288 226.410736,117.181824 233.220779,110.366264 
	C235.164841,108.420631 237.367020,106.732887 239.450836,104.926880 
	C239.927582,105.076363 240.404327,105.225853 240.881073,105.375343 
	C240.881073,127.048065 240.881073,148.720779 240.775543,170.885773 
	C222.046371,171.296661 203.422745,171.218826 184.799149,171.129440 
	C182.472366,171.118271 180.145859,171.046097 177.352463,170.878723 
z"/>
<path fill="#41C5BE" opacity="1.000000" stroke="none" 
	d="
M339.826416,342.634094 
	C317.633301,343.039856 295.320465,343.070953 272.640442,343.128784 
	C272.113861,341.374756 271.954498,339.593964 272.059509,337.431824 
	C274.375000,340.996429 277.827576,341.123566 281.776001,341.082397 
	C299.239105,340.900421 316.705414,340.966370 334.169891,341.058899 
	C336.017578,341.068665 337.861206,341.840912 339.826416,342.634094 
z"/>
<path fill="#C7EAE6" opacity="1.000000" stroke="none" 
	d="
M316.889038,366.913177 
	C324.491028,359.459808 332.093048,352.006439 340.084473,344.182373 
	C340.655334,343.540283 340.836731,343.268860 341.018127,342.997437 
	C341.459473,342.725220 341.900818,342.453003 342.576263,342.065521 
	C343.017548,341.964722 343.224762,341.979156 343.743378,342.014099 
	C343.143707,343.380951 342.418213,344.911621 341.292755,346.045135 
	C330.199829,357.217072 319.061920,368.344666 307.866943,379.414276 
	C306.743866,380.524689 305.160767,381.169861 303.544525,381.734619 
	C304.819550,379.590240 306.341248,377.742157 307.862915,375.894104 
	C309.422699,374.401550 310.982483,372.909027 313.036011,371.061523 
	C314.649475,369.442078 315.769257,368.177612 316.889038,366.913177 
z"/>
<path fill="#6BC8BF" opacity="1.000000" stroke="none" 
	d="
M307.513428,375.920166 
	C306.341248,377.742157 304.819550,379.590240 303.188721,381.748108 
	C294.175262,390.849548 285.270996,399.641174 275.843384,408.743958 
	C274.925507,409.528564 274.530914,410.002014 274.136353,410.475464 
	C273.309875,409.764313 272.483429,409.053131 271.883850,408.027222 
	C273.454193,406.990845 275.057983,406.533417 276.100342,405.506256 
	C285.153839,396.584564 294.081390,387.535156 303.121307,378.599487 
	C304.245117,377.488678 305.805756,376.819855 307.513428,375.920166 
z"/>
<path fill="#C7EAE6" opacity="1.000000" stroke="none" 
	d="
M290.748657,435.093597 
	C291.008575,435.433655 290.952118,435.809326 290.813080,436.457764 
	C290.352478,436.823395 289.974487,436.916260 289.303833,437.012451 
	C289.484894,436.386871 289.958618,435.758026 290.748657,435.093597 
z"/>
<path fill="#C7EAE6" opacity="1.000000" stroke="none" 
	d="
M292.816101,434.458557 
	C292.369537,434.837830 292.000244,434.936035 291.344482,435.049622 
	C291.506073,434.417114 291.954193,433.769165 292.717468,433.072266 
	C292.986176,433.408051 292.939758,433.792755 292.816101,434.458557 
z"/>
<path fill="#C7EAE6" opacity="1.000000" stroke="none" 
	d="
M274.355286,410.580200 
	C274.530914,410.002014 274.925507,409.528564 275.650574,409.014862 
	C275.512146,409.544739 275.043182,410.114838 274.355286,410.580200 
z"/>
<path fill="#41C5BE" opacity="1.000000" stroke="none" 
	d="
M340.761841,343.003540 
	C340.836731,343.268860 340.655334,343.540283 340.234863,343.883911 
	C339.995789,343.956146 339.985596,343.498230 339.989746,343.269867 
	C340.164429,343.030884 340.334991,343.020264 340.761841,343.003540 
z"/>
<path fill="#6BC8BF" opacity="1.000000" stroke="none" 
	d="
M316.534729,366.939117 
	C315.769257,368.177612 314.649475,369.442078 313.217224,370.792664 
	C313.996643,369.574219 315.088531,368.269653 316.534729,366.939117 
z"/>
</svg>